# xmcd
#
# Track frame offsets: 
#        150
#        16251
#        37184
#        54355
#
# Disc length: 1002 seconds
#
# Revision: 0
# Processed by: cddbd v1.5.2PL0 Copyright (c) Steve Scherf et al.
# Submitted via: ExactAudioCopyFreeDBPlugin 1.0
#
DISCID=2a03e804
DTITLE=Anke Wagner - Cool Days Cool Nights
DYEAR=2004
DGENRE=Pop
TTITLE0=cool days cool nights (radio edit)
TTITLE1=cool days cool nights (long version)
TTITLE2=cool days cool nights (club version)
TTITLE3=cool days cool nights (playback version)
EXTD=
EXTT0=
EXTT1=
EXTT2=
EXTT3=
PLAYORDER=
